<svg xmlns="http://www.w3.org/2000/svg" width="170.946" height="151.922" viewBox="0 0 170.946 151.922">
  <path id="edit-solid" d="M119.484,24.762l26.77,26.77a2.9,2.9,0,0,1,0,4.1L81.437,120.445,53.9,123.5a5.772,5.772,0,0,1-6.381-6.381l3.057-27.541,64.817-64.817a2.9,2.9,0,0,1,4.1,0Zm48.078-6.8L153.08,3.483a11.607,11.607,0,0,0-16.382,0L126.191,13.989a2.9,2.9,0,0,0,0,4.1l26.77,26.77a2.9,2.9,0,0,0,4.1,0l10.506-10.506A11.607,11.607,0,0,0,167.562,17.966Zm-53.6,84.85v30.212H18.994V38.058h68.2a3.649,3.649,0,0,0,2.523-1.039l11.871-11.871a3.561,3.561,0,0,0-2.523-6.084H14.245A14.249,14.249,0,0,0,0,33.31V137.777a14.249,14.249,0,0,0,14.245,14.245H118.712a14.249,14.249,0,0,0,14.245-14.245V90.945a3.568,3.568,0,0,0-6.084-2.523L115,100.293A3.649,3.649,0,0,0,113.964,102.816Z" transform="translate(0 -0.1)" fill="#3490dc"/>
</svg>
